<?xml version="1.0" standalone="no"?>
<!DOCTYPE svg PUBLIC "-//W3C//DTD SVG 20010904//EN"
 "http://www.w3.org/TR/2001/REC-SVG-20010904/DTD/svg10.dtd">
<svg version="1.0" xmlns="http://www.w3.org/2000/svg"
 width="48.000000pt" height="48.000000pt" viewBox="0 0 48.000000 48.000000"
 preserveAspectRatio="xMidYMid meet">
<g transform="translate(0.000000,48.000000) scale(0.100000,-0.100000)"
fill="#000000" stroke="none">
<path d="M105 422 l-100 -58 0 -124 0 -124 101 -58 101 -59 107 62 107 61 -3
61 -3 61 -53 31 -53 30 4 58 3 58 -52 29 c-28 17 -53 30 -55 30 -2 0 -49 -26
-104 -58z m150 21 l47 -26 -38 -23 c-48 -29 -58 -30 -101 -3 -19 12 -36 19
-39 16 -3 -2 12 -15 33 -27 l37 -22 -39 -24 c-48 -29 -46 -29 -90 -3 -20 12
-38 19 -41 16 -3 -3 13 -15 35 -28 40 -22 41 -24 41 -76 l0 -54 -42 25 c-43
25 -43 26 -43 83 l0 57 95 57 c52 32 96 58 96 58 1 1 23 -11 49 -26z m-5 -113
c21 -11 41 -23 44 -28 2 -4 -15 -19 -39 -32 l-44 -24 -38 21 c-21 12 -39 25
-40 30 -2 6 61 50 75 53 1 0 20 -9 42 -20z m-40 -147 c0 -29 -2 -53 -4 -53 -2
0 -24 12 -50 26 -46 26 -46 26 -46 80 l0 54 50 -28 50 -27 0 -52z m151 81 l41
-26 -38 -24 c-22 -13 -42 -24 -46 -24 -5 0 -8 23 -8 50 0 28 2 50 5 50 3 0 24
-12 46 -26z m-261 -137 c0 -27 -3 -47 -7 -45 -84 40 -83 39 -83 95 l0 53 45
-28 c43 -26 45 -29 45 -75z m185 75 c-9 -9 38 -42 60 -42 14 0 25 -4 25 -10 0
-5 -5 -10 -11 -10 -5 0 -7 -5 -4 -10 4 -6 3 -9 -2 -8 -4 1 -28 -8 -51 -21 -24
-12 -47 -20 -50 -16 -5 5 -7 70 -3 112 1 6 10 11 21 10 10 -1 17 -3 15 -5z
m-75 -134 c0 -27 -5 -48 -10 -48 -6 0 -28 12 -50 26 -38 25 -40 30 -40 75 l0
49 50 -28 c49 -26 50 -28 50 -74z"/>
<path d="M365 430 c-24 -27 -22 -70 5 -92 32 -26 65 -22 90 9 22 28 21 63 -2
90 -16 20 -72 16 -93 -7z m85 -5 c25 -30 -45 -92 -79 -70 -16 9 -13 51 5 69
20 20 58 21 74 1z"/>
</g>
</svg>
